<svg xmlns="http://www.w3.org/2000/svg" viewBox="0 0 24 24" width="24" height="24" fill="#ffffff">
  <path d="M22.23 0H1.77C.79 0 0 .77 0 1.72v20.56C0 23.23.79 24 1.77 24h20.46c.98 0 1.77-.77 1.77-1.72V1.72C24 .77 23.21 0 22.23 0zM7.12 20.45H3.56V9H7.1v11.45H7.12zM5.34 7.54a2.02 2.02 0 1 1 0-4.04 2.02 2.02 0 0 1 0 4.04zM20.45 20.45h-3.55v-5.75c0-1.37-.49-2.3-1.71-2.3-.94 0-1.49.63-1.73 1.24-.09.22-.11.52-.11.82v6h-3.55s.05-9.73 0-10.73h3.55v1.52c.47-.72 1.31-1.76 3.2-1.76 2.33 0 4.08 1.52 4.08 4.79v6.18h-.01z"/>
</svg>
