<svg xmlns="http://www.w3.org/2000/svg" width="100" height="100" viewBox="0 0 50 50" fill="none">
  <circle cx="25" cy="25" r="25" fill="#fff"/>
  <path d="M32.934 34.375c.423-1.298 2.405-14.234 2.65-16.783.074-.772-.17-1.285-.648-1.514-.578-.278-1.434-.139-2.427.219-1.362.491-18.774 7.884-19.78 8.312-.954.405-1.856.847-1.856 1.487 0 .45.267.703 1.003.966.766.273 2.695.858 3.834 1.172 1.097.303 2.346.04 3.046-.395.742-.461 9.305-6.191 9.92-6.693.614-.502 1.104.141.602.644-.502.502-6.38 6.207-7.155 6.997-.941.959-.273 1.953.358 2.351.721.454 5.906 3.932 6.687 4.49.781.558 1.573.811 2.298.811.746 0 1.128-.955 1.489-2.064z" fill="#000"/>
</svg>
